<svg width="24" height="23" viewBox="0 0 24 23" fill="none" xmlns="http://www.w3.org/2000/svg">
<g filter="url(#filter0_d_1_128)">
<path d="M2 11C2 12.9778 2.58649 14.9112 3.6853 16.5557C4.78412 18.2002 6.3459 19.4819 8.17317 20.2388C10.0004 20.9957 12.0111 21.1937 13.9509 20.8079C15.8907 20.422 17.6725 19.4696 19.0711 18.0711C20.4696 16.6725 21.422 14.8907 21.8079 12.9509C22.1937 11.0111 21.9957 9.00043 21.2388 7.17317C20.4819 5.3459 19.2002 3.78412 17.5557 2.6853C15.9112 1.58649 13.9778 1 12 1C10.6868 1 9.38642 1.25866 8.17317 1.7612C6.95991 2.26375 5.85752 3.00035 4.92893 3.92893C3.05357 5.8043 2 8.34784 2 11ZM13.86 7.31L16.72 10.31C16.7623 10.3534 16.7962 10.4042 16.82 10.46C16.8625 10.5071 16.8963 10.5612 16.92 10.62C16.9729 10.7397 17.0002 10.8691 17.0002 11C17.0002 11.1309 16.9729 11.2603 16.92 11.38C16.8724 11.5028 16.801 11.6149 16.71 11.71L13.71 14.71C13.5217 14.8983 13.2663 15.0041 13 15.0041C12.7337 15.0041 12.4783 14.8983 12.29 14.71C12.1017 14.5217 11.9959 14.2663 11.9959 14C11.9959 13.7337 12.1017 13.4783 12.29 13.29L13.59 12H8C7.73478 12 7.48043 11.8946 7.29289 11.7071C7.10536 11.5196 7 11.2652 7 11C7 10.7348 7.10536 10.4804 7.29289 10.2929C7.48043 10.1054 7.73478 10 8 10H13.66L12.41 8.69C12.227 8.49772 12.1279 8.24062 12.1344 7.97525C12.141 7.70989 12.2527 7.458 12.445 7.275C12.6373 7.092 12.8944 6.99288 13.1597 6.99944C13.4251 7.00601 13.677 7.11772 13.86 7.31Z" fill="white"/>
</g>
<defs>
<filter id="filter0_d_1_128" x="0" y="0" width="24" height="24" filterUnits="userSpaceOnUse" color-interpolation-filters="sRGB">
<feFlood flood-opacity="0" result="BackgroundImageFix"/>
<feColorMatrix in="SourceAlpha" type="matrix" values="0 0 0 0 0 0 0 0 0 0 0 0 0 0 0 0 0 0 127 0" result="hardAlpha"/>
<feOffset dy="1"/>
<feGaussianBlur stdDeviation="1"/>
<feComposite in2="hardAlpha" operator="out"/>
<feColorMatrix type="matrix" values="0 0 0 0 0 0 0 0 0 0 0 0 0 0 0 0 0 0 0.25 0"/>
<feBlend mode="normal" in2="BackgroundImageFix" result="effect1_dropShadow_1_128"/>
<feBlend mode="normal" in="SourceGraphic" in2="effect1_dropShadow_1_128" result="shape"/>
</filter>
</defs>
</svg>
