<svg width="233" height="102" viewBox="0 0 233 102" fill="none" xmlns="http://www.w3.org/2000/svg">
<path d="M9.17082 101.577C9.17082 101.577 9.17082 101.699 9.17082 101.74H14.225V99.3672H25.4337V101.74H38.3952V99.3672H49.6039V101.74H62.5654V99.3672H73.7742V101.74H86.7356V99.3672H97.9444V101.74H110.906V99.3672H122.115V101.74H135.076V99.3672H146.224V101.74H159.185V99.3672H170.394V101.74H183.355V99.3672H194.564V101.74H207.525V99.3672H218.734V101.74H223.809C223.809 101.74 223.809 101.74 223.809 101.577C223.809 99.135 224.775 96.7934 226.495 95.0668C228.215 93.3403 230.547 92.3704 232.98 92.3704V20C232.98 8.95431 224.025 0 212.98 0H20C8.95431 0 0 8.95431 0 20V92.4113C2.42357 92.4166 4.74696 93.3827 6.4645 95.0992C8.18204 96.8157 9.15471 99.1438 9.17082 101.577Z" fill="white"/>
</svg>
