<svg width="234" height="189" viewBox="0 0 234 189" fill="none" xmlns="http://www.w3.org/2000/svg">
<path d="M223.89 0H218.816V2.04586H207.607V0H194.646V2.04586H183.437V0H170.475V2.04586H159.267V0H146.264V2.04586H135.056V0H122.094V2.04586H110.885V0H97.924V2.04586H86.7152V0H73.7538V2.04586H62.545V0H49.5836V2.04586H38.3748V0H25.4134V2.04586H14.2046V0H9.15045C9.10778 2.40966 8.12555 4.70645 6.41468 6.39717C4.70381 8.08789 2.40074 9.0377 0 9.04268V188.219H3.46453V188.014C3.46453 186.451 4.08291 184.953 5.18362 183.848C6.28433 182.743 7.77722 182.122 9.33386 182.122C10.1071 182.117 10.8737 182.265 11.5894 182.559C12.3051 182.853 12.9556 183.287 13.5033 183.834C14.051 184.382 14.4851 185.034 14.7804 185.751C15.0757 186.469 15.2263 187.238 15.2236 188.014V188.26H24.9446V188.014C24.9446 186.451 25.563 184.953 26.6637 183.848C27.7645 182.743 29.2573 182.122 30.814 182.122C32.3671 182.127 33.8547 182.751 34.951 183.855C36.0473 184.959 36.6629 186.455 36.6629 188.014V188.26H46.4044V188.014C46.4017 187.241 46.551 186.476 46.8437 185.761C47.1365 185.046 47.5669 184.396 48.1103 183.849C48.6537 183.302 49.2993 182.867 50.0103 182.571C50.7212 182.275 51.4835 182.122 52.2533 182.122C53.8099 182.122 55.3028 182.743 56.4036 183.848C57.5043 184.953 58.1226 186.451 58.1226 188.014V188.26H67.8233V188.014C67.8233 186.451 68.4417 184.953 69.5424 183.848C70.6431 182.743 72.136 182.122 73.6926 182.122C74.4625 182.122 75.2247 182.275 75.9357 182.571C76.6466 182.867 77.2923 183.302 77.8357 183.849C78.3791 184.396 78.8095 185.046 79.1022 185.761C79.395 186.476 79.5443 187.241 79.5416 188.014V188.26H89.2015V188.014C89.2015 186.451 89.8199 184.953 90.9206 183.848C92.0213 182.743 93.5142 182.122 95.0709 182.122C96.624 182.127 98.1116 182.751 99.2079 183.855C100.304 184.959 100.92 186.455 100.92 188.014V188.26H110.641V188.014C110.638 187.241 110.787 186.476 111.08 185.761C111.373 185.046 111.803 184.396 112.347 183.849C112.89 183.302 113.536 182.867 114.247 182.571C114.958 182.275 115.72 182.122 116.49 182.122C117.264 182.117 118.032 182.265 118.748 182.559C119.465 182.852 120.117 183.286 120.666 183.833C121.216 184.381 121.652 185.032 121.949 185.75C122.247 186.467 122.4 187.237 122.4 188.014V188.26H132.101V188.014C132.101 186.451 132.719 184.953 133.82 183.848C134.92 182.743 136.413 182.122 137.97 182.122C138.74 182.122 139.502 182.275 140.213 182.571C140.924 182.867 141.57 183.302 142.113 183.849C142.656 184.396 143.087 185.046 143.38 185.761C143.672 186.476 143.822 187.241 143.819 188.014V188.26H153.54V188.014C153.54 186.451 154.158 184.953 155.259 183.848C156.36 182.743 157.853 182.122 159.409 182.122C160.962 182.127 162.45 182.751 163.546 183.855C164.643 184.959 165.258 186.455 165.258 188.014V188.26H174.979V188.014C174.971 187.231 175.119 186.454 175.414 185.729C175.71 185.004 176.147 184.346 176.699 183.793C177.252 183.24 177.909 182.804 178.632 182.51C179.355 182.216 180.13 182.07 180.91 182.081C182.459 182.103 183.937 182.739 185.022 183.85C186.106 184.962 186.708 186.458 186.698 188.014V188.26H196.398V188.014C196.398 186.451 197.017 184.953 198.117 183.848C199.218 182.743 200.711 182.122 202.268 182.122C203.037 182.122 203.8 182.275 204.511 182.571C205.222 182.867 205.867 183.302 206.411 183.849C206.954 184.396 207.384 185.046 207.677 185.761C207.97 186.476 208.119 187.241 208.117 188.014V188.26H217.838V188.014C217.832 187.237 217.98 186.466 218.273 185.747C218.565 185.027 218.997 184.373 219.542 183.821C220.088 183.27 220.737 182.832 221.451 182.534C222.166 182.235 222.933 182.081 223.707 182.081C224.479 182.084 225.244 182.24 225.956 182.539C226.669 182.839 227.315 183.277 227.858 183.829C228.402 184.38 228.831 185.033 229.123 185.751C229.414 186.47 229.561 187.239 229.556 188.014V188.26H233.041V9.04268C230.638 9.04297 228.332 8.09486 226.62 6.40302C224.908 4.71119 223.928 2.41135 223.89 0Z" fill="white"/>
</svg>
